<svg width="700" height="320" xmlns="http://www.w3.org/2000/svg"><style>rect, path, line { stroke: #000; stroke-width: 2; } .red { fill: hsl(0,100%,80%); } .yellow { fill: hsl(60,100%,80%); } .green { fill: hsl(120,100%,80%); } .teal { fill: hsl(180,100%,80%); } .blue { fill: hsl(240,100%,80%); } .purple { fill: hsl(300,100%,80%); } text { font-family: Helvetica, Arial, sans-serif; font-size: 22px; fill: #000; } .dotted { stroke-dasharray: 6, 3; } marker path, path path { stroke-width: 1; stroke-dasharray: 0; }</style><marker id="arrow" viewBox="-1 0 12 10" refX="10.5" refY="5" markerWidth="8" markerHeight="8" orient="auto"><path d="M0 0l10 5-10 5z" fill="#fff"/></marker><path class="yellow" d="M150 10h240v90H150z"/><text x="120" y="21" text-anchor="middle" font-weight="bold" transform="translate(150 10)">«Interface»</text><text x="120" y="51" text-anchor="middle" font-weight="bold" transform="translate(150 10)">DelegationInterface</text><path d="M150 68h240"/><text x="13" y="81" text-anchor="middle" transform="translate(150 10)">+</text><text x="30" y="81" transform="translate(150 10)">f()</text><g><path class="yellow" d="M10 160h160v60H10z"/><text x="80" y="21" text-anchor="middle" font-weight="bold" transform="translate(10 160)">DelegateA</text><path d="M10 188h160"/><text x="13" y="51" text-anchor="middle" transform="translate(10 160)">+</text><text x="30" y="51" transform="translate(10 160)">/f()</text></g><g><path class="yellow" d="M190 160h160v60H190z"/><text x="80" y="21" text-anchor="middle" font-weight="bold" transform="translate(190 160)">DelegateB</text><path d="M190 188h160"/><text x="13" y="51" text-anchor="middle" transform="translate(190 160)">+</text><text x="30" y="51" transform="translate(190 160)">/f()</text></g><g><path class="yellow" d="M370 160h320v150H370z"/><text x="160" y="21" text-anchor="middle" font-weight="bold" transform="translate(370 160)">Delegator</text><path d="M370 188h320"/><text x="13" y="51" text-anchor="middle" transform="translate(370 160)">+</text><text x="30" y="51" transform="translate(370 160)">delegate : DelegateInterface</text><path d="M370 218h320"/><text x="13" y="81" text-anchor="middle" transform="translate(370 160)">+</text><text x="30" y="81" transform="translate(370 160)">/f()</text><text x="13" y="111" text-anchor="middle" transform="translate(370 160)">+</text><text x="30" y="111" transform="translate(370 160)">toA()</text><text x="13" y="141" text-anchor="middle" transform="translate(370 160)">+</text><text x="30" y="141" transform="translate(370 160)">toB()</text></g><path d="M90 160v-30h440v30" class="dotted" fill="transparent"/><path d="M270 160v-60" class="dotted" fill="transparent" marker-end="url(#arrow)"/></svg>